<svg enable-background="new 0 0 128 128" viewBox="0 0 128 128" xmlns="http://www.w3.org/2000/svg"><path d="m123.88 47.54.01-8.99c-2.99-.12-5.87-2.75-5.86-5.98 0-.17-.1-.5-.08-.5l-28.04-.03c0 .06.01.13.01.19 0 3.31-2.69 6-6 6s-6-2.69-6-6c0-.07.01-.14.01-.21l-66.69-.08c.01 0 .02.33.02.5 0 3.3-2.79 5.98-6.1 5.97-.26 0-.89-.02-.89-.06l-.01 9.08c0-.03.62-.06.89-.06 3.3 0 6.03 2.69 6.03 5.99s-2.77 5.98-6.07 5.97c-.26 0-.86-.02-.86-.06l-.01 9.08c0-.03.62-.06.89-.06 3.3 0 6.03 2.69 6.03 5.99s-2.77 5.98-6.07 5.97c-.26 0-.86-.02-.86-.06l-.02 9.11c0-.03.62-.06.89-.06 3.3 0 6.03 2.69 6.03 5.99 0 .17.04.5.03.5l66.78.08c.21-3.12 2.8-5.59 5.98-5.59s5.77 2.47 5.98 5.6l27.97.03c-.01 0 .08-.33.09-.5 0-3.23 2.89-5.85 5.88-5.97l.01-8.99c-2.99-.12-5.76-2.75-5.75-5.98s2.78-5.85 5.77-5.96l.01-8.99c-2.99-.12-5.76-2.75-5.75-5.98s2.76-5.83 5.75-5.94zm-39.97 33.36c-3.31 0-6-2.69-6-6s2.69-6 6-6 6 2.69 6 6-2.68 6-6 6zm0-21.34c-3.31 0-6-2.69-6-6s2.69-6 6-6 6 2.69 6 6-2.68 6-6 6z" fill="#ec407a"/><path d="m19.76 43.55 90.26.11-.05 40.86-90.26-.11zm-1.99-2-.05 44.86 94.26.12.05-44.86z" fill="#ad1457"/><path d="m46.56 58h-16.68c-1.59 0-2.88-1.29-2.88-2.88s1.29-2.88 2.88-2.88h16.68c1.59 0 2.88 1.29 2.88 2.88s-1.29 2.88-2.88 2.88z" fill="#880e4f"/><path d="m102.36 78.34h-2.48c-1.59 0-2.88-1.29-2.88-2.88s1.29-2.88 2.88-2.88h2.48c1.59 0 2.88 1.29 2.88 2.88s-1.29 2.88-2.88 2.88z" fill="#c2185b"/><path d="m58.67 66.17h-30c-.92 0-1.67-.75-1.67-1.67s.75-1.67 1.67-1.67h30c.92 0 1.67.75 1.67 1.67-.01.92-.75 1.67-1.67 1.67z" fill="#880e4f"/><path d="m58.67 77h-30c-.92 0-1.67-.75-1.67-1.67s.75-1.67 1.67-1.67h30c.92 0 1.67.75 1.67 1.67-.01.92-.75 1.67-1.67 1.67z" fill="#c2185b"/><path d="m13.11 33.94 63 .08c.82 3.55 4 6.21 7.8 6.21 3.79 0 6.97-2.65 7.79-6.19l24.47.03c.6 2.87 2.86 5.3 5.71 6.15l-.01 5.65c-3.27 1-5.77 4.13-5.77 7.63s2.48 6.64 5.75 7.65l-.01 5.65c-3.27 1-5.77 4.13-5.77 7.63s2.48 6.64 5.75 7.65l-.01 5.65c-2.85.85-5.12 3.27-5.72 6.14l-24.57-.03c-1.02-3.26-4.08-5.6-7.63-5.6-3.54 0-6.59 2.34-7.62 5.59l-63.31-.08c-.3-1.56-1.06-3-2.23-4.15-1.25-1.24-2.83-2.02-4.55-2.26l.01-5.13c3.91-.55 6.93-3.88 6.93-7.89 0-4.02-3-7.37-6.91-7.91l.01-5.13c3.91-.55 6.93-3.88 6.93-7.89 0-4.02-3-7.36-6.91-7.91l.01-5.13c3.46-.48 6.21-3.08 6.86-6.41m70.8 27.62c4.41 0 8-3.59 8-8s-3.59-8-8-8-8 3.59-8 8 3.59 8 8 8m0 21.34c4.41 0 8-3.59 8-8s-3.59-8-8-8-8 3.59-8 8 3.59 8 8 8m-72.67-50.96c.01 0 .02.33.02.5 0 3.3-2.79 5.97-6.09 5.97h-.01c-.26 0-.89-.02-.89-.06l-.01 9.08c0-.03.61-.06.88-.06h.01c3.3 0 6.03 2.69 6.03 5.99s-2.76 5.97-6.06 5.97c-.27 0-.86-.02-.86-.06l-.01 9.08c0-.03.61-.06.88-.06h.01c3.3 0 6.03 2.69 6.03 5.99s-2.76 5.97-6.06 5.97h-.01c-.26 0-.86-.02-.86-.06l-.03 9.11c0-.03.61-.06.88-.06 3.31 0 6.03 2.69 6.03 5.99 0 .17.04.5.03.5l66.78.08c.21-3.12 2.8-5.59 5.98-5.59s5.77 2.47 5.98 5.6l27.97.03c-.01 0 .08-.33.09-.5 0-3.23 2.89-5.85 5.88-5.97l.01-8.99c-2.99-.12-5.76-2.75-5.75-5.98s2.78-5.85 5.77-5.96l.01-8.99c-2.99-.12-5.76-2.75-5.75-5.98 0-3.23 2.78-5.85 5.77-5.96l.01-8.99c-2.99-.12-5.87-2.75-5.86-5.98 0-.17-.1-.5-.08-.5l-28.04-.03c0 .06.01.13.01.19 0 3.31-2.69 6-6 6s-6-2.69-6-6c0-.07.01-.14.01-.21l-66.7-.06zm72.67 27.62c-3.31 0-6-2.69-6-6s2.69-6 6-6 6 2.69 6 6c0 3.32-2.68 6-6 6zm0 21.34c-3.31 0-6-2.69-6-6s2.69-6 6-6 6 2.69 6 6-2.68 6-6 6z" fill="#424242" opacity=".2"/></svg>